<svg width="200" height="200" viewBox="0 0 200 200" fill="none" xmlns="http://www.w3.org/2000/svg">
<path d="M117.101 135C116.854 135 116.615 134.913 116.421 134.753C116.227 134.593 116.09 134.369 116.031 134.118C115.973 133.866 115.997 133.601 116.099 133.365C116.201 133.129 116.376 132.937 116.595 132.817C117.455 132.355 118.343 131.814 119.312 131.176C119.56 131.013 119.86 130.961 120.145 131.03C120.43 131.099 120.677 131.284 120.832 131.545C120.987 131.805 121.038 132.12 120.972 132.419C120.906 132.719 120.729 132.978 120.481 133.141C119.461 133.812 118.519 134.379 117.605 134.875C117.449 134.958 117.276 135.001 117.101 135V135Z" fill="white"/>
<path d="M99.455 139C91.0295 138.99 82.8398 136.217 76.1421 131.105C69.4444 125.993 64.6085 118.825 62.3761 110.701C60.1436 102.577 60.6379 93.9444 63.7831 86.128C66.9284 78.3116 72.5509 71.7427 79.7883 67.4289C87.0257 63.1151 95.4784 61.2946 103.85 62.2466C112.221 63.1985 120.05 66.8704 126.134 72.699C132.218 78.5277 136.222 86.1912 137.532 94.5142C138.842 102.837 137.385 111.36 133.386 118.776C133.247 119.033 133.011 119.224 132.732 119.308C132.452 119.391 132.15 119.36 131.893 119.221C131.636 119.082 131.445 118.847 131.361 118.567C131.277 118.287 131.309 117.986 131.447 117.729C135.231 110.727 136.613 102.678 135.381 94.8151C134.149 86.9526 130.371 79.7117 124.626 74.2037C118.882 68.6957 111.488 65.2248 103.581 64.3239C95.6738 63.423 87.6893 65.1418 80.8531 69.2165C74.0169 73.2912 68.7066 79.4966 65.7373 86.8804C62.768 94.2642 62.3038 102.418 64.4158 110.091C66.5279 117.765 71.0995 124.533 77.4291 129.357C83.7587 134.181 91.4965 136.795 99.455 136.797C102.649 136.803 105.829 136.383 108.912 135.547C109.194 135.471 109.494 135.509 109.748 135.654C110.002 135.799 110.187 136.039 110.264 136.321C110.341 136.602 110.303 136.903 110.158 137.157C110.013 137.41 109.773 137.596 109.491 137.673C106.22 138.56 102.844 139.006 99.455 139V139Z" fill="white"/>
<path d="M125.987 129C125.791 129.001 125.599 128.93 125.436 128.798C125.274 128.666 125.147 128.477 125.073 128.257C124.999 128.037 124.981 127.795 125.021 127.562C125.061 127.33 125.158 127.117 125.298 126.951C126.002 126.116 126.664 125.27 127.267 124.418C127.437 124.177 127.679 124.028 127.939 124.004C128.199 123.979 128.457 124.081 128.655 124.286C128.854 124.492 128.977 124.785 128.997 125.101C129.017 125.416 128.933 125.728 128.764 125.969C128.124 126.876 127.421 127.782 126.674 128.662C126.49 128.879 126.244 129 125.987 129Z" fill="white"/>
<path d="M99.5 131C93.4677 131 87.5708 129.211 82.5551 125.86C77.5394 122.508 73.6302 117.745 71.3217 112.172C69.0132 106.599 68.4092 100.466 69.5861 94.5498C70.7629 88.6333 73.6678 83.1988 77.9333 78.9333C82.1988 74.6678 87.6333 71.7629 93.5498 70.5861C99.4662 69.4092 105.599 70.0132 111.172 72.3217C116.745 74.6302 121.508 78.5394 124.86 83.5551C128.211 88.5708 130 94.4677 130 100.5C129.991 108.586 126.774 116.339 121.056 122.056C115.339 127.774 107.586 130.991 99.5 131V131ZM99.5 72.2082C93.9044 72.2082 88.4345 73.8674 83.7819 76.9762C79.1293 80.0849 75.5031 84.5035 73.3617 89.6732C71.2204 94.8428 70.6601 100.531 71.7518 106.019C72.8434 111.508 75.538 116.549 79.4946 120.505C83.4513 124.462 88.4925 127.157 93.9805 128.248C99.4686 129.34 105.157 128.78 110.327 126.638C115.496 124.497 119.915 120.871 123.024 116.218C126.133 111.566 127.792 106.096 127.792 100.5C127.783 92.9991 124.8 85.8079 119.496 80.504C114.192 75.2001 107.001 72.2166 99.5 72.2082V72.2082Z" fill="white"/>
<path d="M99 120C97.9391 120 96.9217 119.585 96.1716 118.847C95.4214 118.108 95 117.107 95 116.062V96.9375C95 95.8932 95.4214 94.8917 96.1716 94.1533C96.9217 93.4148 97.9391 93 99 93C100.061 93 101.078 93.4148 101.828 94.1533C102.579 94.8917 103 95.8932 103 96.9375V116.062C103 117.107 102.579 118.108 101.828 118.847C101.078 119.585 100.061 120 99 120V120ZM99 95.25C98.5453 95.25 98.1093 95.4278 97.7878 95.7443C97.4663 96.0607 97.2857 96.4899 97.2857 96.9375V116.062C97.2857 116.51 97.4663 116.939 97.7878 117.256C98.1093 117.572 98.5453 117.75 99 117.75C99.4547 117.75 99.8907 117.572 100.212 117.256C100.534 116.939 100.714 116.51 100.714 116.062V96.9375C100.714 96.4899 100.534 96.0607 100.212 95.7443C99.8907 95.4278 99.4547 95.25 99 95.25Z" fill="white"/>
<path d="M99.5 90C98.61 90 97.74 89.7361 96.9999 89.2416C96.2599 88.7471 95.6831 88.0443 95.3425 87.2221C95.0019 86.3998 94.9128 85.495 95.0865 84.6221C95.2601 83.7492 95.6887 82.9474 96.318 82.318C96.9474 81.6887 97.7492 81.2601 98.6221 81.0865C99.495 80.9128 100.4 81.0019 101.222 81.3425C102.044 81.6831 102.747 82.2599 103.242 82.9999C103.736 83.74 104 84.61 104 85.5C104 86.6935 103.526 87.8381 102.682 88.682C101.838 89.5259 100.693 90 99.5 90ZM99.5 83.25C99.055 83.25 98.62 83.382 98.25 83.6292C97.88 83.8764 97.5916 84.2278 97.4213 84.639C97.251 85.0501 97.2064 85.5025 97.2932 85.939C97.3801 86.3754 97.5943 86.7763 97.909 87.091C98.2237 87.4057 98.6246 87.62 99.061 87.7068C99.4975 87.7936 99.9499 87.749 100.361 87.5787C100.772 87.4084 101.124 87.12 101.371 86.75C101.618 86.38 101.75 85.945 101.75 85.5C101.75 84.9033 101.513 84.331 101.091 83.909C100.669 83.4871 100.097 83.25 99.5 83.25Z" fill="white"/>
</svg>
