<svg width="200" height="200" viewBox="0 0 200 200" fill="none" xmlns="http://www.w3.org/2000/svg">
<path d="M104.219 63C103.616 63 103.127 63.4917 103.127 64.0986V70.7919H90.5445C89.3619 70.7919 88.4 71.7604 88.4 72.9507V99.1547L71.9635 109.631C70.7815 110.384 70.0759 111.675 70.0759 113.083V135.803C69.4802 135.812 69 136.3 69 136.901C69 137.508 69.4885 138 70.0915 138H128.909C129.511 138 130 137.508 130 136.901C130 136.299 129.518 135.81 128.921 135.803V117.427C128.921 116.82 128.432 116.328 127.829 116.328C127.226 116.328 126.738 116.82 126.738 117.427V135.803H110.219V94.0887H126.738V112.3C126.738 112.907 127.226 113.399 127.829 113.399C128.432 113.399 128.921 112.907 128.921 112.3V94.0503C128.921 92.86 127.959 91.8916 126.776 91.8916H120.038V72.9508C120.038 71.7605 119.076 70.7921 117.893 70.7921H114.222C113.619 70.7921 113.13 71.2838 113.13 71.8907C113.13 72.4976 113.619 72.9894 114.222 72.9894H117.855V91.8916H115.129V77.2238C115.129 76.6169 114.64 76.1251 114.038 76.1251C113.435 76.1251 112.946 76.6169 112.946 77.2238V91.8916H110.22V77.2238C110.22 76.6169 109.731 76.1251 109.128 76.1251C108.525 76.1251 108.037 76.6169 108.037 77.2238V135.803H90.5829C90.5829 135.202 90.5829 74.5778 90.5829 72.9892H109.128C109.731 72.9892 110.219 72.4975 110.219 71.8906C110.219 71.2837 109.731 70.7919 109.128 70.7919H105.31V64.0986C105.31 63.4917 104.822 63 104.219 63V63ZM88.4 135.803H72.2588V113.083C72.2588 112.432 72.5849 111.836 73.1312 111.487L88.4 101.755V135.803Z" fill="white"/>
<path d="M93 77.0957V131.904C93 132.51 93.4476 133 94 133C94.5524 133 95 132.51 95 131.904V77.0957C95 76.4904 94.5524 76 94 76C93.4476 76 93 76.4904 93 77.0957Z" fill="white"/>
<path d="M103 77.0957V131.904C103 132.51 103.448 133 104 133C104.552 133 105 132.51 105 131.904V77.0957C105 76.4904 104.552 76 104 76C103.448 76 103 76.4904 103 77.0957Z" fill="white"/>
<path d="M98 77.0957V131.904C98 132.51 98.4476 133 99 133C99.5524 133 100 132.51 100 131.904V77.0957C100 76.4904 99.5524 76 99 76C98.4476 76 98 76.4904 98 77.0957Z" fill="white"/>
<path d="M80 120C80.5524 120 81 119.428 81 118.722V117.278C81 116.572 80.5524 116 80 116C79.4476 116 79 116.572 79 117.278V118.722C79 119.428 79.4477 120 80 120Z" fill="white"/>
<path d="M76 120C76.5524 120 77 119.428 77 118.722V117.278C77 116.572 76.5524 116 76 116C75.4476 116 75 116.572 75 117.278V118.722C75 119.428 75.4476 120 76 120Z" fill="white"/>
<path d="M84.5 120C85.3286 120 86 119.428 86 118.722V117.278C86 116.572 85.3286 116 84.5 116C83.6714 116 83 116.572 83 117.278V118.722C83 119.428 83.6716 120 84.5 120Z" fill="white"/>
<path d="M80 126C80.5524 126 81 125.571 81 125.042V123.958C81 123.429 80.5524 123 80 123C79.4476 123 79 123.429 79 123.958V125.042C79 125.571 79.4477 126 80 126V126Z" fill="white"/>
<path d="M76 126C76.5524 126 77 125.571 77 125.042V123.958C77 123.429 76.5524 123 76 123C75.4476 123 75 123.429 75 123.958V125.042C75 125.571 75.4476 126 76 126V126Z" fill="white"/>
<path d="M84.5 126C85.3286 126 86 125.571 86 125.042V123.958C86 123.429 85.3286 123 84.5 123C83.6714 123 83 123.429 83 123.958V125.042C83 125.571 83.6716 126 84.5 126V126Z" fill="white"/>
<path d="M80 113C80.5524 113 81 112.571 81 112.042V110.958C81 110.429 80.5524 110 80 110C79.4476 110 79 110.429 79 110.958V112.042C79 112.571 79.4477 113 80 113V113Z" fill="white"/>
<path d="M84.5 113C85.3286 113 86 112.571 86 112.042V110.958C86 110.429 85.3286 110 84.5 110C83.6714 110 83 110.429 83 110.958V112.042C83 112.571 83.6716 113 84.5 113V113Z" fill="white"/>
<path d="M80 133C80.5524 133 81 132.428 81 131.722V130.278C81 129.572 80.5524 129 80 129C79.4476 129 79 129.572 79 130.278V131.722C79 132.428 79.4477 133 80 133Z" fill="white"/>
<path d="M76 133C76.5524 133 77 132.428 77 131.722V130.278C77 129.572 76.5524 129 76 129C75.4476 129 75 129.572 75 130.278V131.722C75 132.428 75.4476 133 76 133Z" fill="white"/>
<path d="M84.5 133C85.3286 133 86 132.428 86 131.722V130.278C86 129.572 85.3286 129 84.5 129C83.6714 129 83 129.572 83 130.278V131.722C83 132.428 83.6716 133 84.5 133Z" fill="white"/>
<path d="M122.928 124H114.072C113.48 124 113 124.448 113 125C113 125.552 113.48 126 114.072 126H122.928C123.52 126 124 125.552 124 125C124 124.448 123.52 124 122.928 124Z" fill="white"/>
<path d="M122.928 129H114.072C113.48 129 113 129.448 113 130C113 130.552 113.48 131 114.072 131H122.928C123.52 131 124 130.552 124 130C124 129.448 123.52 129 122.928 129Z" fill="white"/>
<path d="M122.928 108H114.072C113.48 108 113 108.671 113 109.5C113 110.329 113.48 111 114.072 111H122.928C123.52 111 124 110.329 124 109.5C124 108.671 123.52 108 122.928 108Z" fill="white"/>
<path d="M122.928 113H114.072C113.48 113 113 113.671 113 114.5C113 115.329 113.48 116 114.072 116H122.928C123.52 116 124 115.329 124 114.5C124 113.671 123.52 113 122.928 113Z" fill="white"/>
<path d="M122.928 118H114.072C113.48 118 113 118.671 113 119.5C113 120.329 113.48 121 114.072 121H122.928C123.52 121 124 120.329 124 119.5C124 118.671 123.52 118 122.928 118Z" fill="white"/>
<path d="M122.928 98H114.072C113.48 98 113 98.4476 113 99C113 99.5524 113.48 100 114.072 100H122.928C123.52 100 124 99.5524 124 99C124 98.4476 123.52 98 122.928 98Z" fill="white"/>
<path d="M122.928 103H114.072C113.48 103 113 103.671 113 104.5C113 105.329 113.48 106 114.072 106H122.928C123.52 106 124 105.329 124 104.5C124 103.671 123.52 103 122.928 103Z" fill="white"/>
</svg>
