<svg width="207" height="207" viewBox="0 0 207 207" fill="none" xmlns="http://www.w3.org/2000/svg">
<circle cx="103.5" cy="103.5" r="103.5" fill="#0D2841"/>
<path d="M150.706 150.706V75.1765H131.824V150.706H125.529V50H81.4706V150.706H75.1765V87.7647H56.2941V150.706H50V157H157V150.706H150.706ZM138.118 87.7647H144.412V94.0588H138.118V87.7647ZM138.118 100.353H144.412V106.647H138.118V100.353ZM138.118 112.941H144.412V119.235H138.118V112.941ZM138.118 125.529H144.412V131.824H138.118V125.529ZM138.118 138.118H144.412V144.412H138.118V138.118ZM62.5882 100.353H68.8824V106.647H62.5882V100.353ZM62.5882 112.941H68.8824V119.235H62.5882V112.941ZM62.5882 125.529H68.8824V131.824H62.5882V125.529ZM62.5882 138.118H68.8824V144.412H62.5882V138.118ZM106.647 62.5882H112.941V68.8824H106.647V62.5882ZM106.647 75.1765H112.941V81.4706H106.647V75.1765ZM106.647 87.7647H112.941V94.0588H106.647V87.7647ZM106.647 100.353H112.941V106.647H106.647V100.353ZM106.647 112.941H112.941V119.235H106.647V112.941ZM94.0588 62.5882H100.353V68.8824H94.0588V62.5882ZM94.0588 75.1765H100.353V81.4706H94.0588V75.1765ZM94.0588 87.7647H100.353V94.0588H94.0588V87.7647ZM94.0588 100.353H100.353V106.647H94.0588V100.353ZM94.0588 112.941H100.353V119.235H94.0588V112.941ZM106.647 150.706V131.824H100.353V150.706H94.0588V125.529H112.941V150.706H106.647Z" fill="white"/>
</svg>
