<svg width="215" height="215" viewBox="0 0 215 215" fill="none" xmlns="http://www.w3.org/2000/svg">
<g filter="url(#filter0_d)">
<circle cx="107.5" cy="105.5" r="103.5" fill="white"/>
</g>
<path d="M154.706 152.706V77.1765H135.824V152.706H129.529V52H85.4706V152.706H79.1765V89.7647H60.2941V152.706H54V159H161V152.706H154.706ZM142.118 89.7647H148.412V96.0588H142.118V89.7647ZM142.118 102.353H148.412V108.647H142.118V102.353ZM142.118 114.941H148.412V121.235H142.118V114.941ZM142.118 127.529H148.412V133.824H142.118V127.529ZM142.118 140.118H148.412V146.412H142.118V140.118ZM66.5882 102.353H72.8824V108.647H66.5882V102.353ZM66.5882 114.941H72.8824V121.235H66.5882V114.941ZM66.5882 127.529H72.8824V133.824H66.5882V127.529ZM66.5882 140.118H72.8824V146.412H66.5882V140.118ZM110.647 64.5882H116.941V70.8824H110.647V64.5882ZM110.647 77.1765H116.941V83.4706H110.647V77.1765ZM110.647 89.7647H116.941V96.0588H110.647V89.7647ZM110.647 102.353H116.941V108.647H110.647V102.353ZM110.647 114.941H116.941V121.235H110.647V114.941ZM98.0588 64.5882H104.353V70.8824H98.0588V64.5882ZM98.0588 77.1765H104.353V83.4706H98.0588V77.1765ZM98.0588 89.7647H104.353V96.0588H98.0588V89.7647ZM98.0588 102.353H104.353V108.647H98.0588V102.353ZM98.0588 114.941H104.353V121.235H98.0588V114.941ZM110.647 152.706V133.824H104.353V152.706H98.0588V127.529H116.941V152.706H110.647Z" fill="#0D2841"/>
<defs>
<filter id="filter0_d" x="0" y="0" width="215" height="215" filterUnits="userSpaceOnUse" color-interpolation-filters="sRGB">
<feFlood flood-opacity="0" result="BackgroundImageFix"/>
<feColorMatrix in="SourceAlpha" type="matrix" values="0 0 0 0 0 0 0 0 0 0 0 0 0 0 0 0 0 0 127 0" result="hardAlpha"/>
<feOffset dy="2"/>
<feGaussianBlur stdDeviation="2"/>
<feComposite in2="hardAlpha" operator="out"/>
<feColorMatrix type="matrix" values="0 0 0 0 0 0 0 0 0 0 0 0 0 0 0 0 0 0 0.25 0"/>
<feBlend mode="normal" in2="BackgroundImageFix" result="effect1_dropShadow"/>
<feBlend mode="normal" in="SourceGraphic" in2="effect1_dropShadow" result="shape"/>
</filter>
</defs>
</svg>
