<svg width="207" height="207" viewBox="0 0 207 207" fill="none" xmlns="http://www.w3.org/2000/svg">
<circle cx="103.5" cy="103.5" r="103.5" fill="#0D2841"/>
<g clip-path="url(#clip0)">
<path d="M135.916 169.504L124.928 132.047C124.927 132.045 124.926 132.043 124.926 132.04L121.005 118.675C121.004 118.673 121.004 118.672 121.003 118.671L115.585 100.201C115.584 100.197 115.583 100.194 115.582 100.191L106.961 70.8041C110.756 69.3943 113.468 65.7371 113.468 61.4577C113.468 55.9618 108.996 51.4907 103.501 51.4907C98.0049 51.4907 93.5336 55.9621 93.5336 61.4577C93.5336 65.7371 96.2449 69.3946 100.04 70.8041L82.0756 132.041C82.075 132.043 82.0742 132.045 82.0737 132.048L71.0856 169.504C70.6616 170.949 71.4896 172.465 72.935 172.889C74.3823 173.313 75.8961 172.485 76.3204 171.04L77.9911 165.344L103.501 148.494L129.011 165.344L130.681 171.04C131.03 172.229 132.118 173 133.298 173C133.552 173 133.811 172.964 134.067 172.889C135.512 172.465 136.34 170.949 135.916 169.504ZM98.9888 61.4572C98.9888 58.9696 101.013 56.9457 103.5 56.9457C105.988 56.9457 108.012 58.9696 108.012 61.4572C108.012 63.9448 105.988 65.9687 103.5 65.9687C101.013 65.9687 98.9888 63.9451 98.9888 61.4572ZM103.5 78.3872L109.335 98.2775H97.6653L103.5 78.3872ZM96.0649 103.733H110.936L114.756 116.756H92.2449L96.0649 103.733ZM80.3698 157.234L86.2725 137.114L98.5514 145.225L80.3698 157.234ZM87.8791 131.637L90.6445 122.211H116.356L119.122 131.637L103.5 141.956L87.8791 131.637ZM108.449 145.225L120.728 137.114L126.631 157.235L108.449 145.225Z" fill="white"/>
<path d="M90.5338 48.49C91.5991 47.4247 91.5991 45.6975 90.5338 44.6325C89.4685 43.5672 87.7416 43.5672 86.676 44.6325C77.3996 53.9096 77.3996 69.005 86.6762 78.2821C87.2089 78.8148 87.9069 79.0811 88.6051 79.0811C89.3031 79.0811 90.0011 78.8145 90.5338 78.2821C91.5991 77.2168 91.5991 75.4897 90.5338 74.4246C83.3834 67.2745 83.3834 55.6401 90.5338 48.49Z" fill="white"/>
<path d="M120.327 44.6325C119.261 43.5672 117.535 43.5672 116.469 44.6325C115.404 45.6978 115.404 47.425 116.469 48.49C123.619 55.6401 123.619 67.2745 116.469 74.4246C115.404 75.4894 115.404 77.2169 116.469 78.2819C117.002 78.8145 117.7 79.0809 118.398 79.0809C119.096 79.0809 119.794 78.8143 120.327 78.2819C129.604 69.0047 129.604 53.9094 120.327 44.6325Z" fill="white"/>
<path d="M80.7007 38.6565C81.766 37.5912 81.766 35.864 80.7007 34.799C79.6354 33.7337 77.9084 33.7337 76.8429 34.799C69.7224 41.9197 65.8008 51.3869 65.8008 61.4574C65.8008 71.5276 69.7224 80.995 76.8429 88.1158C77.3758 88.6484 78.0735 88.9148 78.772 88.9148C79.4706 88.9148 80.168 88.6482 80.7009 88.1158C81.7662 87.0505 81.7662 85.3233 80.7009 84.2583C68.1279 71.6856 68.1279 51.2289 80.7007 38.6565Z" fill="white"/>
<path d="M135.622 41.7048C134.832 40.4223 133.151 40.0227 131.868 40.8127C130.586 41.603 130.187 43.2832 130.976 44.5657C138.836 57.3239 136.913 73.646 126.301 84.2578C125.236 85.3231 125.236 87.0503 126.301 88.1156C126.834 88.6483 127.532 88.9146 128.23 88.9146C128.928 88.9146 129.626 88.6483 130.159 88.1156C136.192 82.0824 140.031 74.0986 140.97 65.6351C141.894 57.3027 139.995 48.8039 135.622 41.7048Z" fill="white"/>
<path d="M128.231 34C124.72 34 124.715 39.4555 128.231 39.4555C131.741 39.4555 131.747 34 128.231 34Z" fill="white"/>
<circle cx="103.364" cy="61.5557" r="5.83691" fill="white"/>
</g>
<defs>
<clipPath id="clip0">
<rect width="139" height="139" fill="white" transform="translate(34 34)"/>
</clipPath>
</defs>
</svg>
