<svg width="215" height="215" viewBox="0 0 215 215" fill="none" xmlns="http://www.w3.org/2000/svg">
<g filter="url(#filter0_d)">
<circle cx="107.5" cy="105.5" r="103.5" fill="white"/>
</g>
<g clip-path="url(#clip0)">
<path d="M139.916 171.504L128.928 134.047C128.927 134.045 128.926 134.043 128.926 134.04L125.005 120.675C125.004 120.673 125.004 120.672 125.003 120.671L119.585 102.201C119.584 102.197 119.583 102.194 119.582 102.191L110.961 72.8041C114.756 71.3943 117.468 67.7371 117.468 63.4577C117.468 57.9618 112.996 53.4907 107.501 53.4907C102.005 53.4907 97.5336 57.9621 97.5336 63.4577C97.5336 67.7371 100.245 71.3946 104.04 72.8041L86.0756 134.041C86.075 134.043 86.0742 134.045 86.0737 134.048L75.0856 171.504C74.6616 172.949 75.4896 174.465 76.935 174.889C78.3823 175.313 79.8961 174.485 80.3204 173.04L81.9911 167.344L107.501 150.494L133.011 167.344L134.681 173.04C135.03 174.229 136.118 175 137.298 175C137.552 175 137.811 174.964 138.067 174.889C139.512 174.465 140.34 172.949 139.916 171.504ZM102.989 63.4572C102.989 60.9696 105.013 58.9457 107.5 58.9457C109.988 58.9457 112.012 60.9696 112.012 63.4572C112.012 65.9448 109.988 67.9687 107.5 67.9687C105.013 67.9687 102.989 65.9451 102.989 63.4572ZM107.5 80.3872L113.335 100.278H101.665L107.5 80.3872ZM100.065 105.733H114.936L118.756 118.756H96.2449L100.065 105.733ZM84.3698 159.234L90.2725 139.114L102.551 147.225L84.3698 159.234ZM91.8791 133.637L94.6445 124.211H120.356L123.122 133.637L107.5 143.956L91.8791 133.637ZM112.449 147.225L124.728 139.114L130.631 159.235L112.449 147.225Z" fill="#0D2841"/>
<path d="M94.5338 50.49C95.5991 49.4247 95.5991 47.6975 94.5338 46.6325C93.4685 45.5672 91.7416 45.5672 90.676 46.6325C81.3996 55.9096 81.3996 71.005 90.6762 80.2821C91.2089 80.8148 91.9069 81.0811 92.6051 81.0811C93.3031 81.0811 94.0011 80.8145 94.5338 80.2821C95.5991 79.2168 95.5991 77.4897 94.5338 76.4246C87.3834 69.2745 87.3834 57.6401 94.5338 50.49Z" fill="#0D2841"/>
<path d="M124.327 46.6325C123.261 45.5672 121.535 45.5672 120.469 46.6325C119.404 47.6978 119.404 49.425 120.469 50.49C127.619 57.6401 127.619 69.2745 120.469 76.4246C119.404 77.4894 119.404 79.2168 120.469 80.2819C121.002 80.8145 121.7 81.0809 122.398 81.0809C123.096 81.0809 123.794 80.8143 124.327 80.2819C133.604 71.0047 133.604 55.9094 124.327 46.6325Z" fill="#0D2841"/>
<path d="M84.7007 40.6565C85.766 39.5912 85.766 37.864 84.7007 36.799C83.6354 35.7337 81.9084 35.7337 80.8429 36.799C73.7224 43.9197 69.8008 53.3869 69.8008 63.4574C69.8008 73.5276 73.7224 82.995 80.8429 90.1158C81.3758 90.6484 82.0735 90.9148 82.772 90.9148C83.4706 90.9148 84.168 90.6482 84.7009 90.1158C85.7662 89.0505 85.7662 87.3233 84.7009 86.2583C72.1279 73.6856 72.1279 53.2289 84.7007 40.6565Z" fill="#0D2841"/>
<path d="M139.622 43.7048C138.832 42.4223 137.151 42.0227 135.868 42.8127C134.586 43.603 134.187 45.2832 134.976 46.5657C142.836 59.3239 140.913 75.646 130.301 86.2578C129.236 87.3231 129.236 89.0503 130.301 90.1156C130.834 90.6483 131.532 90.9146 132.23 90.9146C132.928 90.9146 133.626 90.6483 134.159 90.1156C140.192 84.0824 144.031 76.0986 144.97 67.6351C145.894 59.3027 143.995 50.8039 139.622 43.7048Z" fill="#0D2841"/>
<path d="M132.231 36C128.72 36 128.715 41.4555 132.231 41.4555C135.741 41.4555 135.747 36 132.231 36Z" fill="#0D2841"/>
<circle cx="107.364" cy="63.5557" r="5.83691" fill="#0D2841"/>
</g>
<defs>
<filter id="filter0_d" x="0" y="0" width="215" height="215" filterUnits="userSpaceOnUse" color-interpolation-filters="sRGB">
<feFlood flood-opacity="0" result="BackgroundImageFix"/>
<feColorMatrix in="SourceAlpha" type="matrix" values="0 0 0 0 0 0 0 0 0 0 0 0 0 0 0 0 0 0 127 0" result="hardAlpha"/>
<feOffset dy="2"/>
<feGaussianBlur stdDeviation="2"/>
<feComposite in2="hardAlpha" operator="out"/>
<feColorMatrix type="matrix" values="0 0 0 0 0 0 0 0 0 0 0 0 0 0 0 0 0 0 0.25 0"/>
<feBlend mode="normal" in2="BackgroundImageFix" result="effect1_dropShadow"/>
<feBlend mode="normal" in="SourceGraphic" in2="effect1_dropShadow" result="shape"/>
</filter>
<clipPath id="clip0">
<rect width="139" height="139" fill="white" transform="translate(38 36)"/>
</clipPath>
</defs>
</svg>
