<svg width="200" height="200" viewBox="0 0 200 200" fill="none" xmlns="http://www.w3.org/2000/svg">
<path d="M83 110C83.2652 110 83.5196 109.902 83.7071 109.727C83.8946 109.553 84 109.316 84 109.07V106.93C84 106.684 83.8946 106.447 83.7071 106.273C83.5196 106.098 83.2652 106 83 106C82.7348 106 82.4804 106.098 82.2929 106.273C82.1054 106.447 82 106.684 82 106.93V109.07C82 109.316 82.1054 109.553 82.2929 109.727C82.4804 109.902 82.7348 110 83 110Z" fill="white"/>
<path d="M83 105C83.2652 105 83.5196 104.886 83.7071 104.682C83.8946 104.478 84 104.202 84 103.914V92.0859C84 91.7979 83.8946 91.5217 83.7071 91.318C83.5196 91.1144 83.2652 91 83 91C82.7348 91 82.4804 91.1144 82.2929 91.318C82.1054 91.5217 82 91.7979 82 92.0859V103.914C82 104.202 82.1054 104.478 82.2929 104.682C82.4804 104.886 82.7348 105 83 105Z" fill="white"/>
<path d="M63.567 127.389H67.8947V130.789C67.895 131.734 68.2707 132.641 68.9394 133.31C69.6081 133.979 70.5152 134.355 71.4617 134.357H76.0485V138.432C76.0488 139.377 76.4245 140.284 77.0933 140.953C77.762 141.622 78.6691 141.998 79.6156 142H136.433C137.379 141.998 138.287 141.622 138.955 140.953C139.624 140.284 140 139.377 140 138.432V88.7459C140 88.4458 139.937 88.149 139.816 87.8745C139.694 87.6 139.517 87.3537 139.295 87.1512L131.846 80.3696V68.5352C131.846 67.5899 131.47 66.6833 130.802 66.0144C130.133 65.3454 129.226 64.9687 128.279 64.9669H123.951V61.5683C123.951 60.623 123.575 59.7164 122.907 59.0474C122.238 58.3785 121.331 58.0018 120.384 58H63.567C62.6205 58.0018 61.7134 58.3785 61.0447 59.0474C60.376 59.7164 60.0003 60.623 60 61.5683V123.822C60.0004 124.767 60.3761 125.673 61.0448 126.342C61.7135 127.011 62.6206 127.388 63.567 127.389V127.389ZM134.741 85.778C134.894 85.9173 135.001 86.0994 135.049 86.3005C135.096 86.5017 135.081 86.7124 135.007 86.9051C134.932 87.0978 134.801 87.2634 134.63 87.3802C134.459 87.497 134.257 87.5595 134.05 87.5595H124.67C124.398 87.5595 124.137 87.4515 123.945 87.2594C123.753 87.0673 123.645 86.8068 123.645 86.5351V77.9952C123.645 77.7967 123.702 77.6024 123.811 77.436C123.919 77.2697 124.074 77.1384 124.256 77.0582C124.438 76.978 124.639 76.9523 124.835 76.9842C125.032 77.0162 125.214 77.1044 125.361 77.2382L134.741 85.778ZM128.28 67.0163C128.682 67.0175 129.068 67.1782 129.352 67.463C129.636 67.7479 129.796 68.1337 129.795 68.5359V78.5028L123.941 73.1726C123.544 72.8104 123.025 72.6099 122.488 72.6105H79.6157C78.6693 72.6123 77.7622 72.989 77.0934 73.658C76.4247 74.3269 76.049 75.2335 76.0487 76.1788V80.9848C76.0487 81.2564 76.1568 81.517 76.3491 81.7091C76.5415 81.9012 76.8023 82.0091 77.0744 82.0091C77.3464 82.0091 77.6073 81.9012 77.7996 81.7091C77.9919 81.517 78.1 81.2564 78.1 80.9848V76.1785C78.0996 75.7764 78.259 75.3905 78.5432 75.1056C78.8274 74.8207 79.2131 74.6601 79.6157 74.659H120.568C120.84 74.659 121.101 74.7669 121.293 74.959C121.485 75.1511 121.594 75.4117 121.594 75.6834V86.7512C121.594 87.1265 121.668 87.4981 121.811 87.8448C121.955 88.1914 122.166 88.5065 122.431 88.7718C122.697 89.0372 123.013 89.2476 123.36 89.3912C123.707 89.5348 124.079 89.6088 124.455 89.6088H136.923C137.195 89.6088 137.456 89.7167 137.648 89.9088C137.841 90.1009 137.949 90.3615 137.949 90.6331V138.432C137.949 138.834 137.79 139.22 137.505 139.505C137.221 139.789 136.836 139.95 136.433 139.951H79.6156C79.2129 139.95 78.8272 139.789 78.5431 139.505C78.2589 139.22 78.0995 138.834 78.0998 138.432V89.8625C78.0998 89.5908 77.9918 89.3302 77.7994 89.1381C77.6071 88.946 77.3462 88.8381 77.0742 88.8381C76.8022 88.8381 76.5413 88.946 76.349 89.1381C76.1566 89.3302 76.0485 89.5908 76.0485 89.8625V132.308H71.4617C71.0591 132.307 70.6734 132.146 70.3892 131.861C70.105 131.576 69.9456 131.191 69.946 130.788V68.5352C69.9456 68.133 70.105 67.7472 70.3892 67.4623C70.6734 67.1774 71.0591 67.0168 71.4617 67.0157L128.28 67.0163ZM62.0513 61.5683C62.051 61.1662 62.2104 60.7803 62.4945 60.4955C62.7787 60.2106 63.1644 60.05 63.567 60.0488H120.384C120.787 60.05 121.173 60.2106 121.457 60.4955C121.741 60.7803 121.9 61.1662 121.9 61.5683V64.9676H71.4617C70.5152 64.9693 69.6081 65.346 68.9394 66.015C68.2707 66.6839 67.895 67.5905 67.8947 68.5359V125.341H63.567C63.1644 125.34 62.7787 125.179 62.4945 124.894C62.2103 124.609 62.0509 124.223 62.0513 123.821V61.5683Z" fill="white"/>
</svg>
