<svg width="200" height="200" viewBox="0 0 200 200" fill="none" xmlns="http://www.w3.org/2000/svg">
<path d="M142.263 127.31L130.035 114.621C134.128 108.521 136.288 101.426 136.288 94.0323C136.288 83.5877 131.84 73.5759 124.084 66.5641C122.862 65.4585 121.151 67.3493 122.374 68.4544C126.136 71.8554 129.059 76.0153 131 80.594H114.623C113.087 71.4734 110.016 64.1836 106.081 60.2362C109.677 60.9619 113.145 62.254 116.335 64.0772C117.766 64.8951 119.032 62.682 117.601 61.8645C112.032 58.6821 105.679 57 99.227 57C89.3278 57 80.021 60.852 73.021 67.8463C66.0208 74.8408 62.1657 84.1404 62.1657 94.0323C62.1657 105.561 67.4401 116.241 76.4324 123.237H60.3907C57.9697 123.237 56 125.206 56 127.626V139.611C56 142.031 57.9697 144 60.3907 144H65.5174C67.1656 144 67.1656 141.451 65.5174 141.451H60.3907C59.3754 141.451 58.5497 140.626 58.5497 139.611V127.626C58.5497 126.611 59.3754 125.785 60.3907 125.785H107.851C108.866 125.785 109.692 126.611 109.692 127.626V139.611C109.692 140.626 108.866 141.451 107.851 141.451H72.3102C70.6619 141.451 70.6619 144 72.3102 144H107.851C110.272 144 112.242 142.031 112.242 139.611V128.716C115.697 127.422 118.912 125.631 121.833 123.377L121.861 135.558C121.867 138.107 125.21 139.22 126.746 137.189L131.665 130.683C131.702 130.634 131.762 130.609 131.825 130.619L139.887 131.877C142.366 132.263 144.033 129.147 142.263 127.31V127.31ZM131.964 83.1428C133.126 86.6233 133.739 90.2977 133.739 94.0323C133.739 97.7797 133.142 101.444 131.985 104.922H114.995C115.458 101.446 115.704 97.7838 115.704 94.0323C115.704 90.2269 115.46 86.5735 115.006 83.1428H131.964ZM106.496 123.237H91.9576C89.4391 119.346 87.5359 113.839 86.4227 107.471H112.031C110.918 113.839 109.015 119.346 106.496 123.237ZM86.0239 104.922C85.5497 101.465 85.2996 97.7986 85.2996 94.0323C85.2996 90.2743 85.5481 86.6101 86.0254 83.1428H112.428C112.906 86.6101 113.154 90.2743 113.154 94.0323C113.154 97.7986 112.904 101.465 112.43 104.922H86.0239ZM64.7154 94.0323C64.7154 90.2286 65.3365 86.5674 66.4801 83.1428H83.4479C82.9941 86.5735 82.7501 90.2269 82.7501 94.0323C82.7501 97.7838 82.9954 101.446 83.4586 104.922H66.4679C65.3219 101.465 64.7154 97.7976 64.7154 94.0323V94.0323ZM108.803 69.2461C110.206 72.5456 111.294 76.3957 112.031 80.594H86.4232C87.1602 76.3959 88.2479 72.5456 89.6507 69.2461C92.2707 63.0834 95.7612 59.5488 99.227 59.5488C102.693 59.5488 106.183 63.0834 108.803 69.2461V69.2461ZM92.377 60.2321C88.4394 64.1787 85.3671 71.4704 83.8305 80.594H67.4442C71.8337 70.2687 81.1214 62.5058 92.377 60.2321V60.2321ZM80.6703 123.112C74.6538 119.271 70.1005 113.799 67.4276 107.471H83.8414C84.8861 113.65 86.6484 119.11 88.9807 123.237H80.8326C80.7823 123.192 80.7289 123.149 80.6703 123.112V123.112ZM111.964 126.09C111.512 124.884 110.543 123.928 109.329 123.493C111.733 119.338 113.546 113.778 114.613 107.471H131.023C130.249 109.295 129.313 111.057 128.222 112.74L126.483 110.936C124.844 109.234 121.804 110.433 121.809 112.826L121.826 120.094C118.875 122.651 115.563 124.663 111.964 126.09V126.09ZM140.455 129.271C140.399 129.378 140.325 129.366 140.28 129.359L132.218 128.1C131.227 127.945 130.236 128.346 129.631 129.146L124.712 135.652C124.564 135.762 124.464 135.729 124.411 135.552L124.359 112.82C124.402 112.652 124.499 112.613 124.647 112.704L140.427 129.079C140.458 129.111 140.51 129.165 140.455 129.271V129.271Z" fill="white"/>
<path d="M73.2281 138.116L75.9296 129.679C76.4435 128.074 73.9932 127.269 73.4798 128.874L71.8611 133.929L70.191 129.81C69.7625 128.753 68.2373 128.753 67.8088 129.81L66.139 133.929L64.5201 128.874C64.0067 127.269 61.5567 128.074 62.0704 129.679L64.772 138.116C65.1314 139.238 66.7437 139.304 67.1879 138.209L69 133.74L70.812 138.209C71.2583 139.309 72.866 139.247 73.2281 138.116Z" fill="white"/>
<path d="M80.9482 138.999C81.4863 139.02 81.9831 138.698 82.1883 138.192L84.0002 133.73L85.8122 138.192C86.2529 139.278 87.8661 139.228 88.228 138.099L90.9296 129.676C91.4435 128.074 88.9933 127.27 88.4799 128.872L86.861 133.92L85.191 129.807C84.7625 128.752 83.2373 128.752 82.8088 129.807L81.1389 133.92L79.5201 128.873C79.0067 127.271 76.5567 128.074 77.0704 129.676L79.7719 138.1C79.939 138.619 80.4086 138.978 80.9482 138.999V138.999Z" fill="white"/>
<path d="M95.948 138.999C96.4844 139.02 96.9828 138.698 97.1881 138.192L99.0002 133.73L100.812 138.192C101.253 139.278 102.866 139.228 103.228 138.099L105.93 129.676C106.443 128.074 103.993 127.27 103.48 128.872L101.861 133.92L100.191 129.807C99.7625 128.752 98.2373 128.752 97.8088 129.807L96.1389 133.92L94.5201 128.872C94.0064 127.271 91.5567 128.074 92.0704 129.676L94.7719 138.099C94.9388 138.619 95.4084 138.978 95.948 138.999V138.999Z" fill="white"/>
</svg>
