<svg width="207" height="207" viewBox="0 0 207 207" fill="none" xmlns="http://www.w3.org/2000/svg">
<circle cx="103.5" cy="103.5" r="103.5" fill="#0D2841"/>
<path d="M106.744 117.503C104.598 117.503 102.852 119.249 102.852 121.395V142.471C102.852 144.617 104.598 146.363 106.744 146.363H134.159C136.305 146.363 138.051 144.617 138.051 142.471V121.395C138.051 119.249 136.305 117.503 134.159 117.503H106.744ZM135.02 142.471C135.02 142.938 134.626 143.332 134.159 143.332H106.744C106.277 143.332 105.882 142.938 105.882 142.471V139.004H135.02V142.471ZM135.02 121.395V135.973H105.882V121.395C105.882 120.928 106.277 120.534 106.744 120.534H134.159C134.626 120.534 135.02 120.928 135.02 121.395Z" fill="white"/>
<path d="M150.997 98.0622C150.997 98.043 150.996 98.0242 150.995 98.005C150.991 97.9557 150.985 97.9072 150.978 97.8593C150.976 97.8474 150.974 97.8357 150.972 97.8238C150.96 97.7618 150.945 97.7009 150.926 97.6417C150.923 97.6347 150.92 97.6276 150.918 97.6205C150.9 97.568 150.879 97.5169 150.856 97.467C150.85 97.4542 150.844 97.4417 150.837 97.4292C150.809 97.3738 150.779 97.3199 150.745 97.2686C150.745 97.2678 150.744 97.267 150.744 97.2662L150.743 97.2647C150.742 97.2627 150.74 97.2609 150.739 97.2589L139.571 80.5658C139.289 80.1456 138.817 79.8932 138.311 79.8932H134.082V59.7887C134.082 54.9426 130.14 51 125.294 51H107.116C106.279 51 105.601 51.6782 105.601 52.5153C105.601 53.3523 106.279 54.0306 107.116 54.0306H125.294C128.469 54.0306 131.052 56.6137 131.052 59.7887V79.8934H75.9423V59.7887C75.9423 56.6137 78.5251 54.0306 81.7002 54.0306H100.118C100.955 54.0306 101.633 53.3523 101.633 52.5153C101.633 51.6782 100.955 51 100.118 51H81.7002C76.8543 51 72.9117 54.9426 72.9117 59.7887V79.8934H68.6828C68.1769 79.8934 67.7043 80.146 67.4233 80.5664L56.2612 97.2583C56.0923 97.5056 56 97.8096 56 98.1089V103.126C56 106.627 57.9715 109.676 60.8621 111.223V150.437C60.8621 152.647 62.6594 154.444 64.8687 154.444H142.125C144.335 154.444 146.132 152.647 146.132 150.437V134.413C146.132 133.576 145.454 132.898 144.617 132.898C143.78 132.898 143.101 133.576 143.101 134.413V150.437C143.101 150.976 142.663 151.413 142.125 151.413H94.7954V120.055C94.7954 118.648 93.6506 117.503 92.2434 117.503H71.4948C70.0876 117.503 68.9428 118.648 68.9428 120.055V151.413H64.8687C64.3396 151.413 63.8927 150.967 63.8927 150.437V112.212C64.3129 112.271 64.7416 112.304 65.1778 112.304C68.3757 112.304 71.197 110.66 72.8406 108.173C74.4842 110.66 77.3054 112.304 80.5033 112.304C83.7036 112.304 86.5265 110.66 88.1713 108.172C89.8149 110.66 92.6364 112.304 95.8344 112.304C99.0323 112.304 101.853 110.66 103.497 108.173C105.141 110.66 107.962 112.304 111.16 112.304C114.36 112.304 117.183 110.66 118.828 108.172C120.471 110.66 123.293 112.304 126.491 112.304C129.689 112.304 132.51 110.66 134.154 108.172C135.799 110.66 138.622 112.304 141.822 112.304C142.256 112.304 142.683 112.271 143.101 112.213V127.42C143.101 128.257 143.78 128.935 144.617 128.935C145.454 128.935 146.132 128.257 146.132 127.42V111.226C149.026 109.68 151 106.629 151 103.126V98.1089C151 98.0931 150.998 98.0777 150.997 98.0622ZM71.9734 120.534H91.7648V151.413H71.9734V120.534ZM71.3253 103.126C71.3253 106.515 68.5676 109.273 65.1778 109.273C62.6002 109.273 60.2388 107.596 59.3797 105.169C59.148 104.514 59.0304 103.82 59.0304 103.126V99.6241H71.3253V103.126ZM71.9431 96.5936H60.3515L69.4924 82.924H79.4341L71.9431 96.5936ZM86.6564 103.126C86.6564 106.515 83.8961 109.273 80.5033 109.273C77.1137 109.273 74.3559 106.516 74.3559 103.126V99.6241H86.6564V103.126ZM87.0506 96.5936H75.3988L82.8898 82.924H91.232L87.0506 96.5936ZM101.981 103.126C101.981 106.515 99.2238 109.273 95.8342 109.273C92.4446 109.273 89.6868 106.516 89.6868 103.126V99.6241H101.981V103.126ZM101.981 96.5936H90.2198L94.4012 82.924H101.982L101.981 96.5936ZM105.012 82.924H112.598L116.78 96.5936H105.012V82.924ZM117.313 103.126C117.313 106.515 114.552 109.273 111.16 109.273C107.77 109.273 105.012 106.516 105.012 103.126V99.6241H117.313V103.126ZM115.768 82.924H124.11L131.596 96.5936H119.949L115.768 82.924ZM132.638 103.126C132.638 106.515 129.88 109.273 126.491 109.273C123.101 109.273 120.343 106.516 120.343 103.126V99.6241H132.638V103.126ZM135.051 96.5936L127.565 82.924H137.502L146.647 96.5936H135.051ZM147.969 103.126C147.969 105.542 146.497 107.785 144.285 108.756C143.511 109.097 142.668 109.273 141.822 109.273C138.429 109.273 135.669 106.516 135.669 103.126V99.6241H147.969V103.126Z" fill="white"/>
<path d="M101.59 59.4762C101.328 58.6899 100.566 58.1775 99.743 58.2282C98.9145 58.2797 98.2223 58.884 98.0596 59.6978C98.0578 59.7071 98.056 59.7164 98.0544 59.7257L95.6259 73.1787C95.4774 74.0022 96.0245 74.7904 96.848 74.9391C97.6709 75.0867 98.4599 74.5406 98.6084 73.7169L100.136 65.2561L102.645 73.7676C102.651 73.7878 102.657 73.8076 102.664 73.8274C102.918 74.5721 103.613 75.0692 104.398 75.0692H104.416C105.205 75.0619 105.897 74.5519 106.137 73.8008C106.142 73.7854 106.147 73.7701 106.151 73.7545L108.573 65.2561L110.192 73.7323C110.349 74.5544 111.145 75.0928 111.965 74.9364C112.787 74.7794 113.326 73.9856 113.169 73.1637L110.595 59.6924C110.432 58.8769 109.739 58.2745 108.908 58.2274C108.074 58.1777 107.319 58.7004 107.065 59.4919C107.06 59.5077 107.055 59.5237 107.051 59.5396L104.377 68.9241L101.606 59.5263C101.601 59.5095 101.596 59.4928 101.59 59.4762Z" fill="white"/>
<path d="M124.126 61.3157C124.963 61.3157 125.641 60.6375 125.641 59.8004C125.641 58.9634 124.963 58.2852 124.126 58.2852H118.353C117.516 58.2852 116.838 58.9634 116.838 59.8004V73.4882C116.838 74.3252 117.516 75.0035 118.353 75.0035H124.126C124.963 75.0035 125.641 74.3252 125.641 73.4882C125.641 72.6511 124.963 71.9729 124.126 71.9729H119.868V68.1596H123.696C124.533 68.1596 125.212 67.4814 125.212 66.6443C125.212 65.8073 124.533 65.129 123.696 65.129H119.868V61.3157H124.126Z" fill="white"/>
<path d="M87.6852 72.0356C86.2531 72.0356 84.8748 71.4576 83.998 70.4892C83.4365 69.8692 82.4782 69.8213 81.8576 70.3832C81.2373 70.9448 81.1896 71.9029 81.7515 72.5236C83.2147 74.1395 85.3773 75.0664 87.6852 75.0664C90.495 75.0664 92.8532 73.2828 93.2926 70.8256C93.6219 68.984 92.7756 66.5737 89.412 65.3314C87.6824 64.6939 86.0735 64.0001 85.6135 63.7991C85.2753 63.5377 85.1126 63.1289 85.1763 62.6865C85.2171 62.402 85.4201 61.7076 86.4216 61.4058C88.4828 60.7843 90.3707 62.2818 90.422 62.3232C91.0627 62.8554 92.0139 62.7713 92.5505 62.1329C93.0889 61.4924 93.0063 60.5366 92.3656 59.9979C92.2386 59.8915 89.2163 57.3975 85.5472 58.5043C83.7212 59.0544 82.4296 60.4919 82.1764 62.2559C81.9396 63.9058 82.6536 65.4922 84.0402 66.3959C84.1077 66.44 84.1786 66.4784 84.2524 66.5111C84.3322 66.5466 86.2289 67.3877 88.363 68.1743C89.0187 68.4165 90.5212 69.1077 90.3095 70.2918C90.1559 71.1491 89.1326 72.0356 87.6852 72.0356Z" fill="white"/>
<path fill-rule="evenodd" clip-rule="evenodd" d="M93.6339 119.166H70.9121V153.248H93.6339V119.166ZM76.3019 133.262C76.3019 132.425 76.9802 131.747 77.8172 131.747C78.6541 131.747 79.3325 132.425 79.3325 133.262V138.68C79.3325 139.517 78.6543 140.195 77.8172 140.195C76.9802 140.195 76.3019 139.517 76.3019 138.68V133.262Z" fill="white"/>
<path fill-rule="evenodd" clip-rule="evenodd" d="M84.3316 98.7921H87.7239V105.967H86.8786C86.0978 108.728 83.5596 110.751 80.5489 110.751C77.5382 110.751 74.9999 108.728 74.2191 105.967H72.7754V98.7921H76.7662C77.8361 98.0386 79.1408 97.5962 80.5489 97.5962C81.9569 97.5962 83.2616 98.0386 84.3316 98.7921Z" fill="white"/>
<path d="M73.2402 97.5963L82.5595 81.2876H93.2767L87.6851 97.5963H73.2402Z" fill="white"/>
<path d="M119.371 97.5963L113.779 81.2876H124.962L133.816 97.5963H119.371Z" fill="white"/>
<path fill-rule="evenodd" clip-rule="evenodd" d="M129.996 98.792H133.388V105.967H132.543C131.762 108.728 129.224 110.751 126.213 110.751C123.202 110.751 120.664 108.728 119.883 105.967H118.439V98.792H122.43C123.5 98.0386 124.805 97.5962 126.213 97.5962C127.621 97.5962 128.926 98.0386 129.996 98.792Z" fill="white"/>
<rect x="99.3203" y="51" width="7.73164" height="2.99934" fill="white"/>
<rect x="143.111" y="125.317" width="2.99934" height="10.3311" fill="white"/>
</svg>
