<svg width="215" height="215" viewBox="0 0 215 215" fill="none" xmlns="http://www.w3.org/2000/svg">
<g filter="url(#filter0_d)">
<circle cx="107.5" cy="105.5" r="103.5" fill="white"/>
</g>
<path d="M110.744 119.503C108.598 119.503 106.852 121.249 106.852 123.395V144.471C106.852 146.617 108.598 148.363 110.744 148.363H138.159C140.305 148.363 142.051 146.617 142.051 144.471V123.395C142.051 121.249 140.305 119.503 138.159 119.503H110.744ZM139.02 144.471C139.02 144.938 138.626 145.332 138.159 145.332H110.744C110.277 145.332 109.882 144.938 109.882 144.471V141.004H139.02V144.471ZM139.02 123.395V137.973H109.882V123.395C109.882 122.928 110.277 122.534 110.744 122.534H138.159C138.626 122.534 139.02 122.928 139.02 123.395Z" fill="#0D2841"/>
<path d="M154.997 100.062C154.997 100.043 154.996 100.024 154.995 100.005C154.991 99.9557 154.985 99.9072 154.978 99.8593C154.976 99.8474 154.974 99.8357 154.972 99.8238C154.96 99.7618 154.945 99.7009 154.926 99.6417C154.923 99.6347 154.92 99.6276 154.918 99.6205C154.9 99.568 154.879 99.5169 154.856 99.467C154.85 99.4542 154.844 99.4417 154.837 99.4292C154.809 99.3738 154.779 99.3199 154.745 99.2686C154.745 99.2678 154.744 99.267 154.744 99.2661L154.743 99.2647C154.742 99.2627 154.74 99.2609 154.739 99.2589L143.571 82.5658C143.289 82.1456 142.817 81.8932 142.311 81.8932H138.082V61.7887C138.082 56.9426 134.14 53 129.294 53H111.116C110.279 53 109.601 53.6782 109.601 54.5153C109.601 55.3523 110.279 56.0306 111.116 56.0306H129.294C132.469 56.0306 135.052 58.6137 135.052 61.7887V81.8934H79.9423V61.7887C79.9423 58.6137 82.5251 56.0306 85.7002 56.0306H104.118C104.955 56.0306 105.633 55.3523 105.633 54.5153C105.633 53.6782 104.955 53 104.118 53H85.7002C80.8543 53 76.9117 56.9426 76.9117 61.7887V81.8934H72.6828C72.1769 81.8934 71.7043 82.146 71.4233 82.5664L60.2612 99.2583C60.0923 99.5056 60 99.8096 60 100.109V105.126C60 108.627 61.9715 111.676 64.8621 113.223V152.437C64.8621 154.647 66.6594 156.444 68.8687 156.444H146.125C148.335 156.444 150.132 154.647 150.132 152.437V136.413C150.132 135.576 149.454 134.898 148.617 134.898C147.78 134.898 147.101 135.576 147.101 136.413V152.437C147.101 152.976 146.663 153.413 146.125 153.413H98.7954V122.055C98.7954 120.648 97.6506 119.503 96.2434 119.503H75.4948C74.0876 119.503 72.9428 120.648 72.9428 122.055V153.413H68.8687C68.3396 153.413 67.8927 152.967 67.8927 152.437V114.212C68.3129 114.271 68.7416 114.304 69.1778 114.304C72.3757 114.304 75.197 112.66 76.8406 110.173C78.4842 112.66 81.3054 114.304 84.5033 114.304C87.7036 114.304 90.5265 112.66 92.1713 110.172C93.8149 112.66 96.6364 114.304 99.8344 114.304C103.032 114.304 105.853 112.66 107.497 110.173C109.141 112.66 111.962 114.304 115.16 114.304C118.36 114.304 121.183 112.66 122.828 110.172C124.471 112.66 127.293 114.304 130.491 114.304C133.689 114.304 136.51 112.66 138.154 110.172C139.799 112.66 142.622 114.304 145.822 114.304C146.256 114.304 146.683 114.271 147.101 114.213V129.42C147.101 130.257 147.78 130.935 148.617 130.935C149.454 130.935 150.132 130.257 150.132 129.42V113.226C153.026 111.68 155 108.629 155 105.126V100.109C155 100.093 154.998 100.078 154.997 100.062ZM75.9734 122.534H95.7648V153.413H75.9734V122.534ZM75.3253 105.126C75.3253 108.515 72.5676 111.273 69.1778 111.273C66.6002 111.273 64.2388 109.596 63.3797 107.169C63.148 106.514 63.0304 105.82 63.0304 105.126V101.624H75.3253V105.126ZM75.9431 98.5936H64.3515L73.4924 84.924H83.4341L75.9431 98.5936ZM90.6564 105.126C90.6564 108.515 87.8961 111.273 84.5033 111.273C81.1137 111.273 78.3559 108.516 78.3559 105.126V101.624H90.6564V105.126ZM91.0506 98.5936H79.3988L86.8898 84.924H95.232L91.0506 98.5936ZM105.981 105.126C105.981 108.515 103.224 111.273 99.8342 111.273C96.4446 111.273 93.6868 108.516 93.6868 105.126V101.624H105.981V105.126ZM105.981 98.5936H94.2198L98.4012 84.924H105.982L105.981 98.5936ZM109.012 84.924H116.598L120.78 98.5936H109.012V84.924ZM121.313 105.126C121.313 108.515 118.552 111.273 115.16 111.273C111.77 111.273 109.012 108.516 109.012 105.126V101.624H121.313V105.126ZM119.768 84.924H128.11L135.596 98.5936H123.949L119.768 84.924ZM136.638 105.126C136.638 108.515 133.88 111.273 130.491 111.273C127.101 111.273 124.343 108.516 124.343 105.126V101.624H136.638V105.126ZM139.051 98.5936L131.565 84.924H141.502L150.647 98.5936H139.051ZM151.969 105.126C151.969 107.542 150.497 109.785 148.285 110.756C147.511 111.097 146.668 111.273 145.822 111.273C142.429 111.273 139.669 108.516 139.669 105.126V101.624H151.969V105.126Z" fill="#0D2841"/>
<path d="M105.59 61.4762C105.328 60.6899 104.566 60.1775 103.743 60.2282C102.914 60.2797 102.222 60.884 102.06 61.6978C102.058 61.7071 102.056 61.7164 102.054 61.7257L99.6259 75.1787C99.4774 76.0022 100.024 76.7904 100.848 76.9391C101.671 77.0867 102.46 76.5406 102.608 75.7169L104.136 67.2561L106.645 75.7676C106.651 75.7878 106.657 75.8076 106.664 75.8274C106.918 76.5721 107.613 77.0692 108.398 77.0692H108.416C109.205 77.0619 109.897 76.5519 110.137 75.8008C110.142 75.7854 110.147 75.7701 110.151 75.7545L112.573 67.2561L114.192 75.7323C114.349 76.5544 115.145 77.0928 115.965 76.9364C116.787 76.7794 117.326 75.9856 117.169 75.1637L114.595 61.6924C114.432 60.8769 113.739 60.2745 112.908 60.2274C112.074 60.1777 111.319 60.7004 111.065 61.4919C111.06 61.5077 111.055 61.5237 111.051 61.5396L108.377 70.9241L105.606 61.5263C105.601 61.5095 105.596 61.4928 105.59 61.4762V61.4762Z" fill="#0D2841"/>
<path d="M128.126 63.3157C128.963 63.3157 129.641 62.6375 129.641 61.8004C129.641 60.9634 128.963 60.2852 128.126 60.2852H122.353C121.516 60.2852 120.838 60.9634 120.838 61.8004V75.4882C120.838 76.3252 121.516 77.0035 122.353 77.0035H128.126C128.963 77.0035 129.641 76.3252 129.641 75.4882C129.641 74.6511 128.963 73.9729 128.126 73.9729H123.868V70.1596H127.696C128.533 70.1596 129.212 69.4814 129.212 68.6443C129.212 67.8073 128.533 67.129 127.696 67.129H123.868V63.3157H128.126Z" fill="#0D2841"/>
<path d="M91.6852 74.0356C90.2531 74.0356 88.8748 73.4576 87.998 72.4892C87.4365 71.8692 86.4782 71.8213 85.8576 72.3832C85.2373 72.9448 85.1896 73.9029 85.7515 74.5236C87.2147 76.1395 89.3773 77.0664 91.6852 77.0664C94.495 77.0664 96.8532 75.2828 97.2926 72.8256C97.6219 70.984 96.7756 68.5737 93.412 67.3314C91.6824 66.6939 90.0735 66.0001 89.6135 65.7991C89.2753 65.5377 89.1126 65.1289 89.1763 64.6865C89.2171 64.402 89.4201 63.7076 90.4216 63.4058C92.4828 62.7843 94.3707 64.2818 94.422 64.3232C95.0627 64.8554 96.0139 64.7713 96.5505 64.1329C97.0889 63.4924 97.0063 62.5366 96.3656 61.9979C96.2386 61.8915 93.2163 59.3975 89.5472 60.5043C87.7212 61.0544 86.4296 62.4919 86.1764 64.2559C85.9396 65.9058 86.6536 67.4922 88.0402 68.3959C88.1077 68.44 88.1786 68.4784 88.2524 68.5111C88.3322 68.5466 90.2289 69.3877 92.363 70.1743C93.0187 70.4165 94.5212 71.1077 94.3095 72.2918C94.1559 73.1491 93.1326 74.0356 91.6852 74.0356V74.0356Z" fill="#0D2841"/>
<path fill-rule="evenodd" clip-rule="evenodd" d="M97.6339 121.166H74.9121V155.248H97.6339V121.166ZM80.3019 135.262C80.3019 134.425 80.9802 133.747 81.8172 133.747C82.6541 133.747 83.3325 134.425 83.3325 135.262V140.68C83.3325 141.517 82.6543 142.195 81.8172 142.195C80.9802 142.195 80.3019 141.517 80.3019 140.68V135.262Z" fill="#0D2841"/>
<path fill-rule="evenodd" clip-rule="evenodd" d="M88.3316 100.792H91.7239V107.967H90.8786C90.0978 110.728 87.5596 112.751 84.5489 112.751C81.5382 112.751 78.9999 110.728 78.2191 107.967H76.7754V100.792H80.7662C81.8361 100.039 83.1408 99.5962 84.5489 99.5962C85.9569 99.5962 87.2616 100.039 88.3316 100.792Z" fill="#0D2841"/>
<path d="M77.2402 99.5963L86.5595 83.2876H97.2767L91.6851 99.5963H77.2402Z" fill="#0D2841"/>
<path d="M123.371 99.5963L117.779 83.2876H128.962L137.816 99.5963H123.371Z" fill="#0D2841"/>
<path fill-rule="evenodd" clip-rule="evenodd" d="M133.996 100.792H137.388V107.967H136.543C135.762 110.728 133.224 112.751 130.213 112.751C127.202 112.751 124.664 110.728 123.883 107.967H122.439V100.792H126.43C127.5 100.039 128.805 99.5962 130.213 99.5962C131.621 99.5962 132.926 100.039 133.996 100.792Z" fill="#0D2841"/>
<rect x="103.32" y="53" width="7.73164" height="2.99934" fill="#0D2841"/>
<rect x="147.111" y="127.317" width="2.99934" height="10.3311" fill="#0D2841"/>
<defs>
<filter id="filter0_d" x="0" y="0" width="215" height="215" filterUnits="userSpaceOnUse" color-interpolation-filters="sRGB">
<feFlood flood-opacity="0" result="BackgroundImageFix"/>
<feColorMatrix in="SourceAlpha" type="matrix" values="0 0 0 0 0 0 0 0 0 0 0 0 0 0 0 0 0 0 127 0" result="hardAlpha"/>
<feOffset dy="2"/>
<feGaussianBlur stdDeviation="2"/>
<feComposite in2="hardAlpha" operator="out"/>
<feColorMatrix type="matrix" values="0 0 0 0 0 0 0 0 0 0 0 0 0 0 0 0 0 0 0.25 0"/>
<feBlend mode="normal" in2="BackgroundImageFix" result="effect1_dropShadow"/>
<feBlend mode="normal" in="SourceGraphic" in2="effect1_dropShadow" result="shape"/>
</filter>
</defs>
</svg>
