<svg width="215" height="215" viewBox="0 0 215 215" fill="none" xmlns="http://www.w3.org/2000/svg">
<g filter="url(#filter0_d)">
<circle cx="107.5" cy="105.5" r="103.5" fill="white"/>
</g>
<g clip-path="url(#clip0)">
<path d="M112.028 130.146C111.394 130.679 110.608 130.91 109.847 130.85C109.079 130.791 108.336 130.441 107.798 129.813L107.786 129.795C107.254 129.173 107.027 128.395 107.087 127.646C107.147 126.885 107.5 126.148 108.134 125.615L108.14 125.61C113.457 121.108 119.129 117.704 124.993 115.433C130.903 113.145 137.011 112.012 143.163 112.076C149.228 112.14 155.313 113.371 161.262 115.803C167.005 118.154 172.618 121.631 177.971 126.269C178.035 126.315 178.093 126.368 178.14 126.42C178.702 126.955 179.017 127.659 179.062 128.379C179.108 129.099 178.89 129.836 178.402 130.439C178.355 130.508 178.297 130.572 178.232 130.63C177.692 131.187 176.982 131.499 176.256 131.544C175.494 131.595 174.703 131.349 174.083 130.808C169.245 126.601 164.195 123.462 159.054 121.344C153.791 119.174 148.431 118.084 143.105 118.028C137.715 117.971 132.334 118.983 127.098 121.017C121.879 123.046 116.805 126.102 112.028 130.146ZM143.026 154.034C144.842 154.038 146.482 154.773 147.669 155.953C148.856 157.134 149.591 158.767 149.588 160.562C149.584 162.362 148.843 163.986 147.652 165.163C146.46 166.339 144.812 167.068 143.001 167.064C141.185 167.061 139.546 166.326 138.353 165.145C137.165 163.964 136.43 162.331 136.434 160.537C136.437 158.743 137.178 157.113 138.37 155.936C139.567 154.76 141.209 154.031 143.026 154.034ZM131.683 150.471C131.037 150.987 130.24 151.2 129.479 151.117C128.752 151.04 128.05 150.702 127.535 150.121C127.477 150.063 127.424 149.999 127.383 149.935C126.916 149.312 126.729 148.569 126.807 147.849C126.885 147.129 127.226 146.433 127.813 145.923C127.865 145.871 127.924 145.825 127.983 145.784C130.33 143.913 132.782 142.483 135.297 141.518C137.848 140.536 140.468 140.036 143.111 140.035C145.718 140.034 148.319 140.515 150.883 141.501C153.372 142.458 155.824 143.897 158.188 145.817C158.831 146.335 159.199 147.068 159.28 147.823C159.355 148.578 159.142 149.367 158.619 150.005L158.614 150.011C158.091 150.643 157.358 151.007 156.59 151.087C155.828 151.161 155.032 150.95 154.388 150.432C152.551 148.937 150.672 147.83 148.793 147.095C146.89 146.348 144.986 145.984 143.1 145.987C141.195 145.989 139.279 146.368 137.373 147.114C135.432 147.865 133.526 148.994 131.683 150.471ZM122.174 140.861C122.127 140.907 122.074 140.953 122.021 140.988C121.417 141.475 120.672 141.688 119.951 141.646C119.207 141.598 118.481 141.278 117.938 140.696C117.885 140.649 117.844 140.597 117.803 140.545C117.312 139.946 117.097 139.208 117.139 138.494C117.187 137.733 117.529 136.991 118.151 136.446C122.147 132.952 126.277 130.312 130.476 128.566C134.686 126.821 138.971 125.964 143.283 126.047C147.543 126.125 151.795 127.108 155.987 129.032C160.067 130.904 164.099 133.67 168.036 137.358L168.112 137.428C168.667 137.981 168.953 138.707 168.975 139.439C168.997 140.2 168.726 140.966 168.157 141.563L168.086 141.638C167.523 142.188 166.796 142.477 166.057 142.499C165.29 142.521 164.517 142.252 163.914 141.688C160.504 138.488 157.052 136.107 153.604 134.498C150.12 132.877 146.635 132.052 143.179 131.987C139.669 131.922 136.146 132.642 132.651 134.11C129.115 135.607 125.607 137.865 122.174 140.861Z" fill="#0D2841"/>
</g>
<path fill-rule="evenodd" clip-rule="evenodd" d="M107 53C119.754 53 130.914 59.8215 137.032 70.0149C155.885 70.5607 171 86.0151 171 105C171 107.998 170.623 110.909 169.914 113.686C161.554 108.819 151.636 106 141 106C127.17 106 114.554 110.766 105 118.604C102.434 120.71 99.5 125.5 102.5 131C103.964 133.197 104.651 133.921 106.072 135.422C106.592 135.971 107.21 136.624 108 137.49C109.169 139.247 107.5 140.5 106 140.5C105.693 140.5 105.121 140.492 104.4 140.483C102.271 140.455 98.834 140.409 97.0222 140.49L79 140V139.986C60.1325 139.457 45 123.996 45 105C45 86.716 59.02 71.7066 76.896 70.1358C82.9978 59.8754 94.196 53 107 53Z" fill="#0D2841"/>
<defs>
<filter id="filter0_d" x="0" y="0" width="215" height="215" filterUnits="userSpaceOnUse" color-interpolation-filters="sRGB">
<feFlood flood-opacity="0" result="BackgroundImageFix"/>
<feColorMatrix in="SourceAlpha" type="matrix" values="0 0 0 0 0 0 0 0 0 0 0 0 0 0 0 0 0 0 127 0" result="hardAlpha"/>
<feOffset dy="2"/>
<feGaussianBlur stdDeviation="2"/>
<feComposite in2="hardAlpha" operator="out"/>
<feColorMatrix type="matrix" values="0 0 0 0 0 0 0 0 0 0 0 0 0 0 0 0 0 0 0.25 0"/>
<feBlend mode="normal" in2="BackgroundImageFix" result="effect1_dropShadow"/>
<feBlend mode="normal" in="SourceGraphic" in2="effect1_dropShadow" result="shape"/>
</filter>
<clipPath id="clip0">
<rect width="72" height="55" fill="white" transform="translate(107.104 112) rotate(0.107473)"/>
</clipPath>
</defs>
</svg>
