<svg width="207" height="207" viewBox="0 0 207 207" fill="none" xmlns="http://www.w3.org/2000/svg">
<circle cx="103.5" cy="103.5" r="103.5" fill="#0D2841"/>
<g clip-path="url(#clip0)">
<path d="M108.028 128.146C107.394 128.679 106.608 128.91 105.847 128.85C105.079 128.791 104.336 128.441 103.798 127.813L103.786 127.795C103.254 127.173 103.027 126.395 103.087 125.646C103.147 124.885 103.5 124.148 104.134 123.615L104.14 123.61C109.457 119.108 115.129 115.704 120.993 113.433C126.903 111.145 133.011 110.012 139.163 110.076C145.228 110.14 151.313 111.371 157.262 113.803C163.005 116.154 168.618 119.631 173.971 124.269C174.035 124.315 174.093 124.368 174.14 124.42C174.702 124.955 175.017 125.659 175.062 126.379C175.108 127.099 174.89 127.836 174.402 128.439C174.355 128.508 174.297 128.572 174.232 128.63C173.692 129.187 172.982 129.499 172.256 129.544C171.494 129.595 170.703 129.349 170.083 128.808C165.245 124.601 160.195 121.462 155.054 119.344C149.791 117.174 144.431 116.084 139.105 116.028C133.715 115.971 128.334 116.983 123.098 119.017C117.879 121.046 112.805 124.102 108.028 128.146ZM139.026 152.034C140.842 152.038 142.482 152.773 143.669 153.953C144.856 155.134 145.591 156.767 145.588 158.562C145.584 160.362 144.843 161.986 143.652 163.163C142.46 164.339 140.812 165.068 139.001 165.064C137.185 165.061 135.546 164.326 134.353 163.145C133.165 161.964 132.43 160.331 132.434 158.537C132.437 156.743 133.178 155.113 134.37 153.936C135.567 152.76 137.209 152.031 139.026 152.034ZM127.683 148.471C127.037 148.987 126.24 149.2 125.479 149.117C124.752 149.04 124.05 148.702 123.535 148.121C123.477 148.063 123.424 147.999 123.383 147.935C122.916 147.312 122.729 146.569 122.807 145.849C122.885 145.129 123.226 144.433 123.813 143.923C123.865 143.871 123.924 143.825 123.983 143.784C126.33 141.913 128.782 140.483 131.297 139.518C133.848 138.536 136.468 138.036 139.111 138.035C141.718 138.034 144.319 138.515 146.883 139.501C149.372 140.458 151.824 141.897 154.188 143.817C154.831 144.335 155.199 145.068 155.28 145.823C155.355 146.578 155.142 147.367 154.619 148.005L154.614 148.011C154.091 148.643 153.358 149.007 152.59 149.087C151.828 149.161 151.032 148.95 150.388 148.432C148.551 146.937 146.672 145.83 144.793 145.095C142.89 144.348 140.986 143.984 139.1 143.987C137.195 143.989 135.279 144.368 133.373 145.114C131.432 145.865 129.526 146.994 127.683 148.471ZM118.174 138.861C118.127 138.907 118.074 138.953 118.021 138.988C117.417 139.475 116.672 139.688 115.951 139.646C115.207 139.598 114.481 139.278 113.938 138.696C113.885 138.649 113.844 138.597 113.803 138.545C113.312 137.946 113.097 137.208 113.139 136.494C113.187 135.733 113.529 134.991 114.151 134.446C118.147 130.952 122.277 128.312 126.476 126.566C130.686 124.821 134.971 123.964 139.283 124.047C143.543 124.125 147.795 125.108 151.987 127.032C156.067 128.904 160.099 131.67 164.036 135.358L164.112 135.428C164.667 135.981 164.953 136.707 164.975 137.439C164.997 138.2 164.726 138.966 164.157 139.563L164.086 139.638C163.523 140.188 162.796 140.477 162.057 140.499C161.29 140.521 160.517 140.252 159.914 139.688C156.504 136.488 153.052 134.107 149.604 132.498C146.12 130.877 142.635 130.052 139.179 129.987C135.669 129.922 132.146 130.642 128.651 132.11C125.115 133.607 121.607 135.865 118.174 138.861Z" fill="white"/>
</g>
<path fill-rule="evenodd" clip-rule="evenodd" d="M103 51C115.754 51 126.914 57.8215 133.032 68.0149C151.885 68.5607 167 84.0151 167 103C167 105.998 166.623 108.909 165.914 111.686C157.554 106.819 147.636 104 137 104C123.17 104 110.554 108.766 101 116.604C98.4338 118.71 95.5 123.5 98.5 129C99.9644 131.197 100.651 131.921 102.072 133.422C102.592 133.971 103.21 134.624 104 135.49C105.169 137.247 103.5 138.5 102 138.5C101.693 138.5 101.121 138.492 100.4 138.483C98.2706 138.455 94.834 138.409 93.0222 138.49L75 138V137.986C56.1325 137.457 41 121.996 41 103C41 84.716 55.02 69.7066 72.896 68.1358C78.9978 57.8754 90.196 51 103 51Z" fill="white"/>
<defs>
<clipPath id="clip0">
<rect width="72" height="55" fill="white" transform="translate(103.104 110) rotate(0.107473)"/>
</clipPath>
</defs>
</svg>
