<svg width="198" height="197" viewBox="0 0 198 197" fill="none" xmlns="http://www.w3.org/2000/svg">
<path d="M99.0297 0C126.356 0 151.129 11.0528 169.069 28.8437C187.01 46.6937 198.059 71.2817 198.059 98.5296C198.059 125.718 186.95 150.365 169.069 168.215C151.129 186.065 126.416 197.059 99.0297 197.059C71.703 197.059 46.9307 186.006 28.9901 168.215C11.0495 150.365 0 125.777 0 98.5296C0 71.3408 11.1089 46.6937 28.9901 28.8437C46.9307 10.9937 71.6436 0 99.0297 0ZM150.535 66.7306C146.733 68.4446 142.693 69.5086 138.416 70.0405C142.812 67.4398 146.139 63.3024 147.743 58.3966C143.644 60.82 139.129 62.5341 134.317 63.4798C130.455 59.4014 124.99 56.8599 118.871 56.8599C107.168 56.8599 97.7228 66.2577 97.7228 77.9016C97.7228 79.5566 97.901 81.1524 98.2574 82.6892C80.6733 81.8026 65.1089 73.4095 54.7129 60.7018C52.8713 63.8935 51.8614 67.5581 51.8614 71.2817C51.8614 78.5518 55.604 84.9943 61.2475 88.7771C57.802 88.6589 54.5347 87.7132 51.6832 86.1764V86.4128C51.6832 96.5791 58.9901 105.09 68.6733 107.041C66.8911 107.514 65.0495 107.809 63.0891 107.809C61.7228 107.809 60.4158 107.691 59.1089 107.455C61.8416 115.788 69.6238 121.876 78.8317 122.054C71.5842 127.728 62.495 131.038 52.5743 131.038C50.8515 131.038 49.1881 130.92 47.5248 130.742C56.9109 136.712 68.0198 140.199 79.9604 140.199C118.812 140.199 140.139 108.164 140.139 80.3249C140.139 79.3792 140.139 78.4927 140.079 77.6061C144.238 74.6508 147.802 70.9862 150.594 66.7306H150.535ZM163.96 33.9268C147.327 17.3771 124.396 7.15182 99.0297 7.15182C73.6634 7.15182 50.6733 17.3771 34.099 33.9268C17.4653 50.4765 7.18812 73.2913 7.18812 98.5296C7.18812 123.768 17.4653 146.642 34.099 163.132C50.7327 179.682 73.6634 189.907 99.0297 189.907C124.396 189.907 147.386 179.682 163.96 163.132C180.594 146.583 190.871 123.768 190.871 98.5296C190.871 73.2913 180.594 50.4173 163.96 33.9268Z" fill="white"/>
</svg>
