<svg width="197" height="197" viewBox="0 0 197 197" fill="none" xmlns="http://www.w3.org/2000/svg">
<path fill-rule="evenodd" clip-rule="evenodd" d="M98.5296 0C152.907 0 197.059 44.093 197.059 98.5296C197.059 152.907 152.966 197.059 98.5296 197.059C44.1521 197.059 0 152.966 0 98.5296C0 44.1521 44.093 0 98.5296 0ZM151.725 65.4894C147.824 67.2625 143.627 68.3855 139.194 68.9175C143.686 66.1986 147.174 61.943 148.77 56.8599C144.573 59.3423 139.845 61.1746 134.939 62.1794C130.92 57.9238 125.305 55.3231 118.98 55.3231C106.923 55.3231 97.1701 65.0756 97.1701 77.1332C97.1701 78.8473 97.3474 80.5023 97.7021 82.0981C79.5566 81.1524 63.4798 72.523 52.7225 59.2832C50.772 62.5932 49.7672 66.3759 49.7672 70.2769C49.7672 77.8425 53.6091 84.5215 59.4605 88.4224C55.8551 88.3042 52.5452 87.2994 49.5899 85.7036V85.9991C49.5899 96.5791 57.0963 105.386 67.0852 107.395C65.2529 107.868 63.3024 108.164 61.3519 108.164C59.9334 108.164 58.574 108.046 57.2145 107.75C59.9925 116.439 68.0309 122.704 77.6061 122.94C70.0996 128.792 60.7609 132.279 50.4765 132.279C48.7033 132.279 46.9892 132.161 45.2751 131.984C54.9685 138.19 66.435 141.795 78.7291 141.795C118.862 141.795 140.849 108.518 140.849 79.6748C140.849 78.7291 140.849 77.7834 140.79 76.8377C145.046 73.7642 148.77 69.9223 151.666 65.5485L151.725 65.4894Z" fill="white"/>
</svg>
