<svg width="197" height="197" viewBox="0 0 197 197" fill="none" xmlns="http://www.w3.org/2000/svg">
<path fill-rule="evenodd" clip-rule="evenodd" d="M150.543 77.2514C150.543 77.2514 149.479 69.9223 146.287 66.7306C142.268 62.475 137.717 62.475 135.648 62.2385C120.812 61.1746 98.4705 61.1746 98.4705 61.1746H98.4113C98.4113 61.1746 76.1284 61.1746 61.2337 62.2385C59.165 62.475 54.6139 62.5341 50.5947 66.7306C47.4029 69.9223 46.3981 77.2514 46.3981 77.2514C46.3981 77.2514 45.3342 85.8218 45.3342 94.4513V102.49C45.3342 111.06 46.3981 119.689 46.3981 119.689C46.3981 119.689 47.462 127.019 50.5947 130.21C54.6139 134.466 59.9334 134.289 62.2976 134.761C70.8089 135.589 98.4113 135.825 98.4113 135.825C98.4113 135.825 120.753 135.766 135.589 134.702C137.658 134.466 142.209 134.407 146.228 130.21C149.42 127.019 150.484 119.689 150.484 119.689C150.484 119.689 151.548 111.119 151.548 102.49V94.4513C151.548 85.8809 150.484 77.2514 150.484 77.2514H150.543ZM98.5296 0C125.718 0 150.365 11.0528 168.215 28.8437C186.065 46.6937 197.059 71.2817 197.059 98.5296C197.059 125.718 186.006 150.365 168.215 168.215C150.365 186.065 125.777 197.059 98.5296 197.059C71.3408 197.059 46.6937 186.006 28.8437 168.215C10.9937 150.365 0 125.777 0 98.5296C0 71.3408 11.0528 46.6937 28.8437 28.8437C46.6937 10.9937 71.2817 0 98.5296 0ZM163.132 33.8677C146.583 17.318 123.768 7.09271 98.5296 7.09271C73.2913 7.09271 50.4173 17.318 33.9268 33.8677C17.3771 50.4173 7.15182 73.2322 7.15182 98.4705C7.15182 123.709 17.3771 146.583 33.9268 163.073C50.4765 179.623 73.2913 189.848 98.5296 189.848C123.768 189.848 146.642 179.623 163.132 163.073C179.682 146.524 189.907 123.709 189.907 98.4705C189.907 73.2322 179.682 50.3582 163.132 33.8677ZM87.4768 112.301V82.4528L116.202 97.4065L87.4768 112.301Z" fill="white"/>
</svg>
