<svg width="197" height="197" viewBox="0 0 197 197" fill="none" xmlns="http://www.w3.org/2000/svg">
<path fill-rule="evenodd" clip-rule="evenodd" d="M86.5902 80.0294H105.622V89.7819H105.918C108.578 84.9943 115.079 80.0294 124.713 80.0294C144.809 80.0294 148.533 92.5599 148.533 108.873V142.032H128.674V112.597C128.674 105.563 128.555 96.5791 118.33 96.5791C107.987 96.5791 106.391 104.204 106.391 112.124V142.032H86.5311V80.0294H86.5902ZM98.5296 0C125.718 0 150.365 11.0528 168.215 28.8437C186.065 46.6937 197.059 71.2817 197.059 98.5296C197.059 125.718 186.006 150.365 168.215 168.215C150.365 186.065 125.777 197.059 98.5296 197.059C71.3408 197.059 46.6937 186.006 28.8437 168.215C10.9937 150.365 0 125.777 0 98.5296C0 71.3408 11.0528 46.6937 28.8437 28.8437C46.6937 10.9937 71.2817 0 98.5296 0ZM163.132 33.8677C146.583 17.318 123.768 7.09271 98.5296 7.09271C73.2913 7.09271 50.4173 17.318 33.9268 33.8677C17.3771 50.4173 7.15182 73.2322 7.15182 98.4705C7.15182 123.709 17.3771 146.583 33.9268 163.073C50.4765 179.623 73.2913 189.848 98.5296 189.848C123.768 189.848 146.642 179.623 163.132 163.073C179.682 146.524 189.907 123.709 189.907 98.4705C189.907 73.2322 179.682 50.3582 163.132 33.8677ZM72.8185 62.8296C72.8185 68.5629 68.2082 73.1731 62.475 73.1731C56.7417 73.1731 52.1314 68.5629 52.1314 62.8296C52.1314 57.0963 56.7417 52.4861 62.475 52.4861C68.2082 52.4861 72.8185 57.0963 72.8185 62.8296ZM52.1314 80.0294H72.8185V142.032H52.1314V80.0294Z" fill="white"/>
</svg>
