<svg width="197" height="197" viewBox="0 0 197 197" fill="none" xmlns="http://www.w3.org/2000/svg">
<path d="M98.5296 0C125.718 0 150.365 11.0528 168.215 28.8437C186.065 46.6937 197.059 71.2817 197.059 98.5296C197.059 125.718 186.006 150.365 168.215 168.215C150.365 186.065 125.777 197.059 98.5296 197.059C71.3408 197.059 46.6937 186.006 28.8437 168.215C10.9937 150.365 0 125.777 0 98.5296C0 71.3408 11.0528 46.6937 28.8437 28.8437C46.6937 10.9937 71.2817 0 98.5296 0ZM109.228 67.2034H127.019V45.8662H109.228C95.5152 45.8662 84.3441 57.0372 84.3441 70.7498V81.4479H70.0996V102.785H84.3441V159.704H105.681V102.785H123.472L127.019 81.4479H105.681V70.7498C105.681 68.7993 107.336 67.2034 109.228 67.2034ZM163.191 33.9268C146.642 17.3771 123.827 7.15182 98.5887 7.15182C73.3504 7.15182 50.4765 17.3771 33.9859 33.9268C17.4362 50.4765 7.21092 73.2913 7.21092 98.5296C7.21092 123.768 17.4362 146.642 33.9859 163.132C50.5356 179.682 73.3504 189.907 98.5887 189.907C123.827 189.907 146.701 179.682 163.191 163.132C179.741 146.583 189.966 123.768 189.966 98.5296C189.966 73.2913 179.741 50.4173 163.191 33.9268Z" fill="white"/>
</svg>
