<svg width="198" height="197" viewBox="0 0 198 197" fill="none" xmlns="http://www.w3.org/2000/svg">
<path fill-rule="evenodd" clip-rule="evenodd" d="M99.0297 0C153.683 0 198.059 44.093 198.059 98.5296C198.059 152.907 153.743 197.059 99.0297 197.059C44.3762 197.059 0 152.966 0 98.5296C0 44.1521 44.3168 0 99.0297 0ZM153.267 76.4831C153.267 76.4831 152.198 68.8584 148.871 65.5485C144.653 61.1746 139.901 61.1155 137.762 60.8791C122.257 59.7561 99.0297 59.7561 99.0297 59.7561H98.9703C98.9703 59.7561 75.6832 59.7561 60.2376 60.8791C58.099 61.1155 53.3465 61.1746 49.1287 65.5485C45.802 68.8584 44.7327 76.4831 44.7327 76.4831C44.7327 76.4831 43.604 85.408 43.604 94.333V102.667C43.604 111.592 44.7327 120.517 44.7327 120.517C44.7327 120.517 45.802 128.142 49.1287 131.452C53.3465 135.825 58.8713 135.707 61.3663 136.18C70.2178 137.008 99.0297 137.303 99.0297 137.303C99.0297 137.303 122.317 137.244 137.822 136.18C139.96 135.944 144.713 135.884 148.931 131.511C152.257 128.201 153.327 120.576 153.327 120.576C153.327 120.576 154.455 111.651 154.455 102.726V94.3921C154.455 85.4672 153.327 76.5422 153.327 76.5422L153.267 76.4831ZM87.5049 112.833V81.8617L117.446 97.4065L87.5049 112.833Z" fill="white"/>
</svg>
