<svg width="197" height="197" viewBox="0 0 197 197" fill="none" xmlns="http://www.w3.org/2000/svg">
<path fill-rule="evenodd" clip-rule="evenodd" d="M98.5296 0C152.907 0 197.059 44.093 197.059 98.5296C197.059 152.907 152.966 197.059 98.5296 197.059C44.1521 197.059 0 152.966 0 98.5296C0 44.1521 44.093 0 98.5296 0ZM85.8218 78.9655H106.036V89.309H106.332C109.169 84.2259 116.025 78.9655 126.309 78.9655C147.647 78.9655 151.607 92.2643 151.607 109.523V144.75H130.506V113.542C130.506 106.095 130.329 96.52 119.512 96.52C108.518 96.52 106.863 104.617 106.863 113.011V144.75H85.7627V78.9655H85.8218ZM71.2226 60.7018C71.2226 66.7306 66.3168 71.6955 60.2289 71.6955C54.2001 71.6955 49.2352 66.7897 49.2352 60.7018C49.2352 54.673 54.141 49.7081 60.2289 49.7081C66.2577 49.7081 71.2226 54.6139 71.2226 60.7018ZM49.2943 78.9655H71.2226V144.75H49.2943V78.9655Z" fill="white"/>
</svg>
